# Wavefront OBJ exported by MilkShape 3D

v 0.007126 -25.102219 0.017366
v 3.007125 -25.102219 0.017366
v 2.783999 -25.102219 -0.946120
v 2.229029 -25.102219 -1.908525
v 1.510071 -25.102219 -2.579008
v 0.562803 -25.102219 -2.869140
v -0.548552 -25.102219 -2.869139
v -1.495819 -25.102219 -2.579009
v -2.214777 -25.102219 -1.908524
v -2.769747 -25.102219 -0.946120
v -2.992874 -25.102219 0.017365
v -2.769747 -25.102219 0.980852
v -2.214777 -25.102219 1.943256
v -1.495820 -25.102219 2.613740
v -0.548553 -25.102219 2.903870
v 0.562800 -25.102219 2.903871
v 1.510069 -25.102219 2.613740
v 2.229028 -25.102219 1.943258
v 2.783999 -25.102219 0.980853
v 3.007125 14.126919 0.017365
v 2.783999 14.126923 -0.946121
v 2.229029 14.126915 -1.908526
v 1.510071 14.126919 -2.579009
v 0.562803 14.126915 -2.869140
v -0.548552 14.126915 -2.869139
v -1.495819 14.126923 -2.579009
v -2.214778 14.126919 -1.908525
v -2.769747 14.126919 -0.946121
v -2.992874 14.126919 0.017365
v -2.769747 14.126915 0.980852
v -2.214778 14.126923 1.943254
v -1.495819 14.126915 2.613739
v -0.548553 14.126919 2.903870
v 0.562800 14.126923 2.903870
v 1.510070 14.126923 2.613740
v 2.229029 14.126923 1.943257
v 2.783999 14.126915 0.980853
v 0.029845 25.120506 0.017366
v 0.028155 25.120506 0.010069
v 0.023952 25.120506 0.002781
v 0.018508 25.120502 -0.002296
v 0.011334 25.120506 -0.004494
v 0.002918 25.120502 -0.004493
v -0.004256 25.120506 -0.002296
v -0.009700 25.120506 0.002780
v -0.013903 25.120506 0.010069
v -0.015593 25.120506 0.017365
v -0.013904 25.120506 0.024661
v -0.009701 25.120502 0.031949
v -0.004257 25.120502 0.037027
v 0.002916 25.120506 0.039224
v 0.011332 25.120506 0.039225
v 0.018506 25.120506 0.037029
v 0.023951 25.120506 0.031953
v 0.028154 25.120506 0.024665
v 0.007126 25.120506 0.017366
v -0.250000 -23.052551 -7.826976
v -0.250000 -17.101820 -2.965485
v -0.250000 -25.139208 -7.799222
v -0.250000 -25.139208 -2.965485
v 0.250000 -23.052551 -7.826976
v 0.250000 -17.101820 -2.965485
v 0.250000 -25.139208 -7.799222
v 0.250000 -25.139208 -2.965485
v 7.826982 -23.052551 0.250003
v 2.965491 -17.101820 0.249997
v 7.799229 -25.139208 0.250005
v 2.965492 -25.139208 0.250005
v 7.826982 -23.052551 -0.249997
v 2.965491 -17.101822 -0.250003
v 7.799229 -25.139208 -0.249995
v 2.965492 -25.139208 -0.249995
v -0.249998 -23.052551 7.826978
v -0.250004 -17.101820 2.965486
v -0.249996 -25.139208 7.799225
v -0.249996 -25.139208 2.965487
v 0.250002 -23.052551 7.826978
v 0.249996 -17.101820 2.965486
v 0.250004 -25.139208 7.799225
v 0.250004 -25.139208 2.965487
v -7.826977 -23.052551 0.250001
v -2.965486 -17.101820 0.250001
v -7.799223 -25.139208 0.250001
v -2.965486 -25.139208 0.250001
v -7.826977 -23.052551 -0.249999
v -2.965486 -17.101820 -0.249999
v -7.799223 -25.139208 -0.249999
v -2.965486 -25.139208 -0.249999
# 88 vertices

vt 0.500000 0.000000
vt 0.805556 0.000000
vt 0.750000 0.000000
vt 0.861111 0.000000
vt 0.916667 0.000000
vt 0.972222 0.000000
vt 0.027778 0.000000
vt -0.027778 0.000000
vt 0.083333 0.000000
vt 0.138889 0.000000
vt 0.194444 0.000000
vt 0.250000 0.000000
vt 0.305556 0.000000
vt 0.361111 0.000000
vt 0.416667 0.000000
vt 0.472222 0.000000
vt 0.527778 0.000000
vt 0.583333 0.000000
vt 0.638889 0.000000
vt 0.694444 0.000000
vt 0.805556 0.500000
vt 0.750000 0.500000
vt 0.861111 0.500000
vt 0.916667 0.500000
vt 0.972222 0.500000
vt 0.027778 0.500000
vt -0.027778 0.500000
vt 0.083333 0.500000
vt 0.138889 0.500000
vt 0.194444 0.500000
vt 0.250000 0.500000
vt 0.305556 0.500000
vt 0.361111 0.500000
vt 0.416667 0.500000
vt 0.472222 0.500000
vt 0.527778 0.500000
vt 0.583333 0.500000
vt 0.638889 0.500000
vt 0.694444 0.500000
vt 0.805556 1.000000
vt 0.750000 1.000000
vt 0.861111 1.000000
vt 0.916667 1.000000
vt 0.972222 1.000000
vt 0.027778 1.000000
vt -0.027778 1.000000
vt 0.083333 1.000000
vt 0.138889 1.000000
vt 0.194444 1.000000
vt 0.250000 1.000000
vt 0.305556 1.000000
vt 0.361111 1.000000
vt 0.416667 1.000000
vt 0.472222 1.000000
vt 0.527778 1.000000
vt 0.583333 1.000000
vt 0.638889 1.000000
vt 0.694444 1.000000
vt 0.500000 1.000000
vt 1.000000 0.000000
vt 1.000000 1.000000
vt 0.000000 1.000000
vt 0.000000 0.000000
# 63 texture coordinates

vn 0.000000 -1.000000 0.000000
vn 0.997034 -0.000000 -0.076965
vn 0.922902 0.129006 -0.362780
vn 0.991253 0.131967 0.001284
vn 0.911083 -0.000000 -0.412223
vn 0.776702 0.129560 -0.616400
vn 0.750795 -0.000000 -0.660536
vn 0.496999 0.131959 -0.857659
vn 0.432393 -0.000000 -0.901685
vn 0.147567 0.129011 -0.980602
vn 0.098583 0.000000 -0.995129
vn -0.145942 0.129523 -0.980778
vn -0.197166 0.000000 -0.980370
vn -0.494731 0.131975 -0.858967
vn -0.565129 -0.000000 -0.825002
vn -0.775746 0.129039 -0.617711
vn -0.812824 -0.000000 -0.582509
vn -0.922240 0.129510 -0.364280
vn -0.947411 -0.000000 -0.320020
vn -0.991253 0.131968 -0.001300
vn -0.997034 -0.000000 0.076965
vn -0.922895 0.129005 0.362799
vn -0.911083 -0.000000 0.412224
vn -0.776725 0.129561 0.616370
vn -0.750795 0.000000 0.660535
vn -0.496987 0.131959 0.857666
vn -0.432393 0.000000 0.901685
vn -0.147625 0.129012 0.980593
vn -0.098583 0.000000 0.995129
vn 0.145942 0.129523 0.980778
vn 0.197165 0.000000 0.980370
vn 0.494718 0.131976 0.858974
vn 0.565128 -0.000000 0.825003
vn 0.775740 0.129039 0.617719
vn 0.812823 -0.000000 0.582510
vn 0.922238 0.129510 0.364285
vn 0.947411 -0.000000 0.320020
vn 0.915704 0.256455 -0.309382
vn 0.962559 0.260683 0.074327
vn 0.785837 0.255532 -0.563172
vn 0.545610 0.260699 -0.796459
vn 0.190518 0.256480 -0.947587
vn -0.095284 0.255473 -0.962109
vn -0.417365 0.260673 -0.870549
vn -0.725685 0.256551 -0.638406
vn -0.880826 0.255471 -0.398599
vn -0.962558 0.260681 -0.074346
vn -0.915701 0.256458 0.309388
vn -0.785860 0.255528 0.563143
vn -0.545648 0.260704 0.796431
vn -0.190603 0.256478 0.947571
vn 0.095171 0.255481 0.962118
vn 0.417341 0.260673 0.870561
vn 0.725652 0.256553 0.638443
vn 0.880812 0.255472 0.398627
vn -0.000017 1.000000 -0.000010
vn -1.000000 0.000000 0.000000
vn 1.000000 0.000000 0.000000
vn 0.000000 0.632669 -0.774422
vn 0.000000 0.000000 1.000000
vn -2.000000 0.000000 -0.000000
vn 2.000000 -0.000000 0.000000
vn 0.000000 -0.013299 -0.999912
vn 0.000000 -0.000001 -1.000000
vn 0.774422 0.632669 -0.000001
vn 0.000000 -2.000000 0.000002
vn 0.000000 2.000000 -0.000002
vn 0.999912 -0.013299 0.000000
vn 0.000000 0.632670 0.774422
vn 0.000000 -0.013299 0.999912
vn -0.774422 0.632669 0.000000
vn -0.999912 -0.013299 0.000000
# 72 normals

g MissileBody01
s 1
f 1/1/1 3/2/1 2/3/1
f 1/1/1 4/4/1 3/2/1
f 1/1/1 5/5/1 4/4/1
f 1/1/1 6/6/1 5/5/1
f 1/1/1 7/7/1 6/8/1
f 1/1/1 8/9/1 7/7/1
f 1/1/1 9/10/1 8/9/1
f 1/1/1 10/11/1 9/10/1
f 1/1/1 11/12/1 10/11/1
f 1/1/1 12/13/1 11/12/1
f 1/1/1 13/14/1 12/13/1
f 1/1/1 14/15/1 13/14/1
f 1/1/1 15/16/1 14/15/1
f 1/1/1 16/17/1 15/16/1
f 1/1/1 17/18/1 16/17/1
f 1/1/1 18/19/1 17/18/1
f 1/1/1 19/20/1 18/19/1
f 1/1/1 2/3/1 19/20/1
s 8
f 2/3/2 21/21/3 20/22/4
f 2/3/2 3/2/5 21/21/3
f 3/2/5 22/23/6 21/21/3
f 3/2/5 4/4/7 22/23/6
f 4/4/7 23/24/8 22/23/6
f 4/4/7 5/5/9 23/24/8
f 5/5/9 24/25/10 23/24/8
f 5/5/9 6/6/11 24/25/10
f 6/8/11 25/26/12 24/27/10
f 6/8/11 7/7/13 25/26/12
f 7/7/13 26/28/14 25/26/12
f 7/7/13 8/9/15 26/28/14
f 8/9/15 27/29/16 26/28/14
f 8/9/15 9/10/17 27/29/16
f 9/10/17 28/30/18 27/29/16
f 9/10/17 10/11/19 28/30/18
f 10/11/19 29/31/20 28/30/18
f 10/11/19 11/12/21 29/31/20
f 11/12/21 30/32/22 29/31/20
f 11/12/21 12/13/23 30/32/22
f 12/13/23 31/33/24 30/32/22
f 12/13/23 13/14/25 31/33/24
f 13/14/25 32/34/26 31/33/24
f 13/14/25 14/15/27 32/34/26
f 14/15/27 33/35/28 32/34/26
f 14/15/27 15/16/29 33/35/28
f 15/16/29 34/36/30 33/35/28
f 15/16/29 16/17/31 34/36/30
f 16/17/31 35/37/32 34/36/30
f 16/17/31 17/18/33 35/37/32
f 17/18/33 36/38/34 35/37/32
f 17/18/33 18/19/35 36/38/34
f 18/19/35 37/39/36 36/38/34
f 18/19/35 19/20/37 37/39/36
f 19/20/37 20/22/4 37/39/36
f 19/20/37 2/3/2 20/22/4
f 20/22/4 39/40/38 38/41/39
f 20/22/4 21/21/3 39/40/38
f 21/21/3 40/42/40 39/40/38
f 21/21/3 22/23/6 40/42/40
f 22/23/6 41/43/41 40/42/40
f 22/23/6 23/24/8 41/43/41
f 23/24/8 42/44/42 41/43/41
f 23/24/8 24/25/10 42/44/42
f 24/27/10 43/45/43 42/46/42
f 24/27/10 25/26/12 43/45/43
f 25/26/12 44/47/44 43/45/43
f 25/26/12 26/28/14 44/47/44
f 26/28/14 45/48/45 44/47/44
f 26/28/14 27/29/16 45/48/45
f 27/29/16 46/49/46 45/48/45
f 27/29/16 28/30/18 46/49/46
f 28/30/18 47/50/47 46/49/46
f 28/30/18 29/31/20 47/50/47
f 29/31/20 48/51/48 47/50/47
f 29/31/20 30/32/22 48/51/48
f 30/32/22 49/52/49 48/51/48
f 30/32/22 31/33/24 49/52/49
f 31/33/24 50/53/50 49/52/49
f 31/33/24 32/34/26 50/53/50
f 32/34/26 51/54/51 50/53/50
f 32/34/26 33/35/28 51/54/51
f 33/35/28 52/55/52 51/54/51
f 33/35/28 34/36/30 52/55/52
f 34/36/30 53/56/53 52/55/52
f 34/36/30 35/37/32 53/56/53
f 35/37/32 54/57/54 53/56/53
f 35/37/32 36/38/34 54/57/54
f 36/38/34 55/58/55 54/57/54
f 36/38/34 37/39/36 55/58/55
f 37/39/36 38/41/39 55/58/55
f 37/39/36 20/22/4 38/41/39
s 1
f 56/59/56 38/41/56 39/40/56
f 56/59/56 39/40/56 40/42/56
f 56/59/56 40/42/56 41/43/56
f 56/59/56 41/43/56 42/44/56
f 56/59/56 42/46/56 43/45/56
f 56/59/56 43/45/56 44/47/56
f 56/59/56 44/47/56 45/48/56
f 56/59/56 45/48/56 46/49/56
f 56/59/56 46/49/56 47/50/56
f 56/59/56 47/50/56 48/51/56
f 56/59/56 48/51/56 49/52/56
f 56/59/56 49/52/56 50/53/56
f 56/59/56 50/53/56 51/54/56
f 56/59/56 51/54/56 52/55/56
f 56/59/56 52/55/56 53/56/56
f 56/59/56 53/56/56 54/57/56
f 56/59/56 54/57/56 55/58/56
f 56/59/56 55/58/56 38/41/56
# 108 triangles in group

g default
# 0 triangles in group

g MissileFin04
s 2
f 57/60/57 59/61/57 60/62/57
f 60/62/57 58/63/57 57/60/57
s 4
f 61/63/58 62/60/58 64/61/58
f 64/61/58 63/62/58 61/63/58
s 8
f 57/63/59 58/60/59 62/61/59
f 62/61/59 61/62/59 57/63/59
s 16
f 58/63/60 60/60/60 64/61/60
f 64/61/60 62/62/60 58/63/60
s 32
f 60/63/61 59/60/57 63/61/58
f 63/61/58 64/62/62 60/63/61
s 31
f 59/63/63 57/60/63 61/61/63
f 61/61/63 63/62/63 59/63/63
# 12 triangles in group

g MissileFin02
s 2
f 68/62/60 67/61/60 65/60/60
f 65/60/60 66/63/60 68/62/60
s 4
f 72/61/64 70/60/64 69/63/64
f 69/63/64 71/62/64 72/61/64
s 8
f 70/61/65 66/60/65 65/63/65
f 65/63/65 69/62/65 70/61/65
s 16
f 72/61/57 68/60/57 66/63/57
f 66/63/57 70/62/57 72/61/57
s 32
f 71/61/56 67/60/1 68/63/66
f 68/63/66 72/62/67 71/61/56
s 31
f 69/61/68 65/60/68 67/63/68
f 67/63/68 71/62/68 69/61/68
# 12 triangles in group

g MissileFin03
s 2
f 76/62/57 75/61/57 73/60/57
f 73/60/57 74/63/57 76/62/57
s 4
f 80/61/58 78/60/58 77/63/58
f 77/63/58 79/62/58 80/61/58
s 8
f 78/61/69 74/60/69 73/63/69
f 73/63/69 77/62/69 78/61/69
s 16
f 80/61/64 76/60/64 74/63/64
f 74/63/64 78/62/64 80/61/64
s 32
f 79/61/58 75/60/57 76/63/61
f 76/63/61 80/62/62 79/61/58
s 31
f 77/61/70 73/60/70 75/63/70
f 75/63/70 79/62/70 77/61/70
# 12 triangles in group

g MissileFin01
s 2
f 81/60/60 83/61/60 84/62/60
f 84/62/60 82/63/60 81/60/60
s 4
f 85/63/64 86/60/64 88/61/64
f 88/61/64 87/62/64 85/63/64
s 8
f 81/63/71 82/60/71 86/61/71
f 86/61/71 85/62/71 81/63/71
s 16
f 82/63/58 84/60/58 88/61/58
f 88/61/58 86/62/58 82/63/58
s 32
f 84/63/66 83/60/1 87/61/56
f 87/61/56 88/62/67 84/63/66
s 31
f 83/63/72 81/60/72 85/61/72
f 85/61/72 87/62/72 83/63/72
# 12 triangles in group

# 156 triangles total

