#
# objects/orange1/orange10_lod0_geom.obj Dataset
#
#

mtllib orange10.mtl

v 0.175663 0.000000 0.000000
vn 0.857930 0.489395 -0.156360
vt 0.000000 0.000000
v -0.087832 -0.152129 0.000000
vn 0.002143 -0.995986 0.089486
vt 0.333333 0.000000
v -0.087832 0.152129 0.000000
vn -0.857603 0.508079 0.079832
vt 0.666667 0.000000
vt 1.000000 0.000000
v 0.248318 0.044860 0.544177
vn 0.978470 0.185044 0.091410
vt 0.000000 0.297715
v -0.012707 -0.104059 0.522315
vn -0.332042 -0.942480 -0.038467
vt 0.333333 0.297715
v -0.012707 0.196956 0.542784
vn -0.648780 0.760500 -0.026915
vt 0.666667 0.297715
vt 1.000000 0.297715
v 0.126890 -0.116807 1.730080
vn 0.996941 -0.036529 0.069099
vt 0.000000 0.954695
v -0.113806 -0.254185 1.709103
vn -0.527253 -0.846575 -0.072907
vt 0.333333 0.954695
v -0.113053 0.023632 1.720641
vn -0.470507 0.880385 0.059550
vt 0.666667 0.954695
vt 1.000000 0.954695
v -0.034255 -0.138655 3.232658
vn 0.812766 -0.570184 0.119591
vt 0.000000 1.781945
v -0.218618 -0.243881 3.216590
vn -0.903217 -0.428753 -0.019214
vt 0.333333 1.781945
v -0.218042 -0.031085 3.225428
vn 0.077511 0.993588 0.082313
vt 0.666667 1.781945
vt 1.000000 1.781945
v -0.156972 -0.137874 3.224892
vn -1.#IND00 -1.#IND00 -1.#IND00
vt 0.500000 0.890973


usemtl material0
g material0

f 1/1/1 4/5/4 2/2/2
f 5/6/5 2/2/2 4/5/4
f 2/2/2 5/6/5 3/3/3
f 6/7/6 3/3/3 5/6/5
f 3/3/3 6/7/6 1/4/1
f 4/8/4 1/4/1 6/7/6
f 4/5/4 7/9/7 5/6/5
f 8/10/8 5/6/5 7/9/7
f 5/6/5 8/10/8 6/7/6
f 9/11/9 6/7/6 8/10/8
f 6/7/6 9/11/9 4/8/4
f 7/12/7 4/8/4 9/11/9
f 7/9/7 10/13/10 8/10/8
f 11/14/11 8/10/8 10/13/10
f 8/10/8 11/14/11 9/11/9
f 12/15/12 9/11/9 11/14/11
f 9/11/9 12/15/12 7/12/7
f 10/16/10 7/12/7 12/15/12
f 13/17/13 11/14/11 10/13/10
f 13/17/13 12/15/12 11/14/11
f 13/17/13 10/16/10 12/15/12


