#
# objects/palm1/palm10_lod0_geom.obj Dataset
#
#

mtllib palm10.mtl

v 0.257564 0.000000 0.000000
vn 0.892616 0.450727 0.009051
vt 0.000000 0.000000
v -0.128782 -0.223057 0.000000
vn -0.057387 -0.998066 0.023903
vt 0.333333 0.000000
v -0.128782 0.223057 0.000000
vn -0.833897 0.551889 0.005827
vt 0.666667 0.000000
vt 1.000000 0.000000
v 0.207172 0.035065 3.220962
vn 0.937758 -0.343648 0.050149
vt 0.000000 1.202408
v -0.109651 -0.146550 3.201668
vn -0.772158 -0.635053 -0.021915
vt 0.333333 1.202408
v -0.109651 0.218045 3.232155
vn -0.164163 0.986031 0.028150
vt 0.666667 1.202408
vt 1.000000 1.202408
v 0.132745 -0.171928 4.440385
vn 0.962392 -0.250351 0.105483
vt 0.000000 1.663386
v -0.120059 -0.306969 4.385978
vn -0.691229 -0.675722 -0.256131
vt 0.333333 1.663386
v -0.120793 -0.029097 4.477453
vn -0.292062 0.919648 0.262578
vt 0.666667 1.663386
vt 1.000000 1.663386
v 0.035689 -0.650164 5.214926
vn 0.824427 -0.545589 -0.150508
vt 0.000000 2.004688
v -0.157068 -0.753129 5.173442
vn -0.900174 -0.394484 -0.184580
vt 0.333333 2.004688
v -0.157628 -0.541258 5.243190
vn 0.064493 0.789586 0.610241
vt 0.666667 2.004688
vt 1.000000 2.004688
v -0.093003 -0.648183 5.210519
vn -1.#IND00 -1.#IND00 -1.#IND00
vt 0.500000 1.002344


usemtl material0
g material0

f 1/1/1 4/5/4 2/2/2
f 5/6/5 2/2/2 4/5/4
f 2/2/2 5/6/5 3/3/3
f 6/7/6 3/3/3 5/6/5
f 3/3/3 6/7/6 1/4/1
f 4/8/4 1/4/1 6/7/6
f 4/5/4 7/9/7 5/6/5
f 8/10/8 5/6/5 7/9/7
f 5/6/5 8/10/8 6/7/6
f 9/11/9 6/7/6 8/10/8
f 6/7/6 9/11/9 4/8/4
f 7/12/7 4/8/4 9/11/9
f 7/9/7 10/13/10 8/10/8
f 11/14/11 8/10/8 10/13/10
f 8/10/8 11/14/11 9/11/9
f 12/15/12 9/11/9 11/14/11
f 9/11/9 12/15/12 7/12/7
f 10/16/10 7/12/7 12/15/12
f 13/17/13 11/14/11 10/13/10
f 13/17/13 12/15/12 11/14/11
f 13/17/13 10/16/10 12/15/12


