#
# objects/palm1/palm10_lod0_tex.obj Dataset
#
#

mtllib palm10.mtl

v -0.018484 -0.687793 4.676147
vn 0.989863 -0.024662 0.139866
vt 0.134766 0.500000
v -0.018484 2.764864 5.284950
vn 0.989863 -0.024662 0.139866
vt 0.134766 1.000000
v -0.161306 -0.860649 5.656453
vn 0.989863 -0.024662 0.139866
vt 0.065430 0.500000
v -0.161306 2.592008 6.265256
vn 0.989863 -0.024662 0.139866
vt 0.065430 1.000000


usemtl material3
g material3

f 1/1/1 2/2/2 3/3/3
f 4/4/4 3/3/3 2/2/2
v -0.125988 -0.570505 4.676147
vn -0.753751 0.642104 0.139866
vt 0.134766 0.500000
v -2.298802 -3.253734 5.284950
vn -0.753751 0.642104 0.139866
vt 0.134766 1.000000
v 0.093787 -0.526050 5.656453
vn -0.753751 0.642104 0.139866
vt 0.065430 0.500000
v -2.079027 -3.209279 6.265256
vn -0.753751 0.642104 0.139866
vt 0.065430 1.000000


usemtl material3
g material3

f 5/5/5 6/6/6 7/7/7
f 8/8/8 7/7/7 6/6/6
v 0.008470 -0.702798 4.681939
vn 0.150010 -0.980092 0.130065
vt 0.134766 0.500000
v 3.149018 -0.035249 6.090066
vn 0.150010 -0.980092 0.130065
vt 0.134766 1.000000
v -0.412294 -0.646222 5.593550
vn 0.150010 -0.980092 0.130065
vt 0.065430 0.500000
v 2.728253 0.021327 7.001677
vn 0.150010 -0.980092 0.130065
vt 0.065430 1.000000


usemtl material3
g material3

f 9/9/9 10/10/10 11/11/11
f 12/12/12 11/11/11 10/10/10
v -0.137492 -0.541881 4.681939
vn 0.500208 0.856081 0.130064
vt 0.134766 0.500000
v -2.998265 0.915732 6.090066
vn 0.500208 0.856081 0.130064
vt 0.134766 1.000000
v 0.153901 -0.850643 5.593550
vn 0.500208 0.856081 0.130064
vt 0.065430 0.500000
v -2.706873 0.606971 7.001676
vn 0.500208 0.856081 0.130064
vt 0.065430 1.000000


usemtl material3
g material3

f 13/13/13 14/14/14 15/15/15
f 16/16/16 15/15/15 14/14/14
v -0.269890 -0.434102 4.746239
vn -0.888641 -0.437751 0.136717
vt 0.134766 0.500000
v 1.102830 -3.517252 3.796865
vn -0.888641 -0.437751 0.136717
vt 0.134766 1.000000
v -0.029777 -0.622260 5.704477
vn -0.888641 -0.437751 0.136717
vt 0.065430 0.500000
v 1.342942 -3.705410 4.755104
vn -0.888641 -0.437751 0.136717
vt 0.065430 1.000000


usemtl material3
g material3

f 17/17/17 18/18/18 19/19/19
f 20/20/20 19/19/19 18/18/18
v -0.090260 -0.925875 4.746239
vn 0.966090 -0.219039 0.136717
vt 0.134766 0.500000
v 0.783210 2.334068 3.796866
vn 0.966090 -0.219039 0.136717
vt 0.134766 1.000000
v -0.158452 -0.628541 5.704477
vn 0.966090 -0.219039 0.136717
vt 0.065430 0.500000
v 0.715017 2.631401 4.755104
vn 0.966090 -0.219039 0.136717
vt 0.065430 1.000000


usemtl material3
g material3

f 21/21/21 22/22/22 23/23/23
f 24/24/24 23/23/23 22/22/22
v -0.356182 -0.747286 4.748360
vn -0.501096 0.859471 0.101053
vt 0.134766 0.500000
v -2.374300 -2.213551 7.211842
vn -0.501096 0.859471 0.101053
vt 0.134766 1.000000
v 0.293634 -0.451700 5.456630
vn -0.501096 0.859471 0.101053
vt 0.065430 0.500000
v -1.724485 -1.917966 7.920112
vn -0.501096 0.859471 0.101053
vt 0.065430 1.000000


usemtl material3
g material3

f 25/25/25 26/26/26 27/27/27
f 28/28/28 27/27/27 26/26/26
v 0.173893 -0.736789 4.748360
vn -0.151454 -0.983285 0.101053
vt 0.134766 0.500000
v 2.665017 -0.867319 7.211842
vn -0.151454 -0.983285 0.101053
vt 0.134766 1.000000
v -0.517127 -0.557563 5.456630
vn -0.151454 -0.983285 0.101053
vt 0.065430 0.500000
v 1.973997 -0.688093 7.920112
vn -0.151454 -0.983285 0.101053
vt 0.065430 1.000000


usemtl material3
g material3

f 29/29/29 30/30/30 31/31/31
f 32/32/32 31/31/31 30/30/30
v 0.231631 -0.840206 4.822683
vn 0.610543 0.782256 0.123742
vt 0.134766 0.500000
v -2.038425 1.203733 3.102031
vn 0.610543 0.782256 0.123742
vt 0.134766 1.000000
v -0.226995 -0.619448 5.689982
vn 0.610543 0.782256 0.123742
vt 0.065430 0.500000
v -2.497050 1.424490 3.969330
vn 0.610543 0.782256 0.123742
vt 0.065430 1.000000


usemtl material3
g material3

f 33/33/33 34/34/34 35/35/35
f 36/36/36 35/35/35 34/34/34
v -0.224448 -0.294656 4.822683
vn -0.966770 -0.223705 0.123742
vt 0.134766 0.500000
v 0.253438 -3.311686 3.102031
vn -0.966770 -0.223705 0.123742
vt 0.134766 1.000000
v -0.006954 -0.754838 5.689982
vn -0.966770 -0.223705 0.123742
vt 0.065430 0.500000
v 0.470932 -3.771868 3.969330
vn -0.966770 -0.223705 0.123742
vt 0.065430 1.000000


usemtl material3
g material3

f 37/37/37 38/38/38 39/39/39
f 40/40/40 39/39/39 38/38/38
v 0.125789 -0.418258 4.772409
vn 0.803341 -0.588301 0.092440
vt 0.134766 0.500000
v 1.266730 1.557951 7.434049
vn 0.803341 -0.588301 0.092440
vt 0.134766 1.000000
v -0.375751 -1.001320 5.420309
vn 0.803341 -0.588301 0.092440
vt 0.065430 0.500000
v 0.765190 0.974890 8.081950
vn 0.803341 -0.588301 0.092440
vt 0.065430 1.000000


usemtl material3
g material3

f 41/41/41 42/42/42 43/43/43
f 44/44/44 43/43/43 42/42/42
v -0.407732 -0.689180 4.772408
vn -0.254088 0.962754 0.092440
vt 0.134766 0.500000
v -2.538074 -1.506975 7.434049
vn -0.254088 0.962754 0.092440
vt 0.134766 1.000000
v 0.348970 -0.551682 5.420309
vn -0.254088 0.962754 0.092440
vt 0.065430 0.500000
v -1.781373 -1.369477 8.081950
vn -0.254088 0.962754 0.092440
vt 0.065430 1.000000


usemtl material3
g material3

f 45/45/45 46/46/46 47/47/47
f 48/48/48 47/47/47 46/46/46
v -0.435911 -0.615123 4.793390
vn -0.249558 -0.959717 0.129091
vt 0.134766 0.500000
v 2.594801 -1.599825 3.331669
vn -0.249558 -0.959717 0.129091
vt 0.134766 1.000000
v 0.002934 -0.607536 5.698174
vn -0.249558 -0.959717 0.129091
vt 0.065430 0.500000
v 3.033646 -1.592237 4.236453
vn -0.249558 -0.959717 0.129091
vt 0.065430 1.000000


usemtl material3
g material3

f 49/49/49 50/50/50 51/51/51
f 52/52/52 51/51/51 50/50/50
v 0.152683 -0.889674 4.793390
vn 0.797910 0.588791 0.129091
vt 0.134766 0.500000
v -1.582942 1.782864 3.331669
vn 0.797910 0.588791 0.129091
vt 0.134766 1.000000
v -0.193139 -0.619398 5.698174
vn 0.797910 0.588791 0.129091
vt 0.065430 0.500000
v -1.928765 2.053140 4.236454
vn 0.797910 0.588791 0.129091
vt 0.065430 1.000000


usemtl material3
g material3

f 53/53/53 54/54/54 55/55/55
f 56/56/56 55/55/55 54/54/54
v -0.187614 -0.835465 4.711871
vn -0.975778 0.185903 0.115318
vt 0.134766 0.500000
v -0.485140 -3.666562 6.758294
vn -0.975778 0.185903 0.115318
vt 0.134766 1.000000
v 0.015154 -0.272537 5.520125
vn -0.975778 0.185903 0.115318
vt 0.065430 0.500000
v -0.282372 -3.103634 7.566548
vn -0.975778 0.185903 0.115318
vt 0.065430 1.000000


usemtl material3
g material3

f 57/57/57 58/58/58 59/59/59
f 60/60/60 59/59/59 58/58/58
v 0.098384 -0.562178 4.711870
vn 0.641333 -0.758547 0.115318
vt 0.134766 0.500000
v 2.111261 1.450769 6.758294
vn 0.641333 -0.758547 0.115318
vt 0.134766 1.000000
v -0.413457 -0.872052 5.520125
vn 0.641333 -0.758547 0.115318
vt 0.065430 0.500000
v 1.599421 1.140896 7.566548
vn 0.641333 -0.758547 0.115318
vt 0.065430 1.000000


usemtl material3
g material3

f 61/61/61 62/62/62 63/63/63
f 64/64/64 63/63/63 62/62/62
v 0.063175 -0.556837 4.700676
vn -0.112550 0.983486 0.141730
vt 0.134766 0.500000
v -3.416344 -0.922598 4.475611
vn -0.112550 0.983486 0.141730
vt 0.134766 1.000000
v 0.014554 -0.705557 5.694052
vn -0.112550 0.983486 0.141730
vt 0.065430 0.500000
v -3.464965 -1.071318 5.468987
vn -0.112550 0.983486 0.141730
vt 0.065430 1.000000


usemtl material3
g material3

f 65/65/65 66/66/66 67/67/67
f 68/68/68 67/67/67 66/66/66
v -0.271862 -0.620888 4.700676
vn -0.531456 -0.835145 0.141731
vt 0.134766 0.500000
v 2.662421 -2.526356 4.475610
vn -0.531456 -0.835145 0.141731
vt 0.134766 1.000000
v -0.140484 -0.535909 5.694052
vn -0.531456 -0.835145 0.141731
vt 0.065430 0.500000
v 2.793799 -2.441377 5.468987
vn -0.531456 -0.835145 0.141731
vt 0.065430 1.000000


usemtl material3
g material3

f 69/69/69 70/70/70 71/71/71
f 72/72/72 71/71/71 70/70/70
v -0.009890 -0.662826 4.676147
vn 0.949032 0.282445 0.139866
vt 0.134766 0.500000
v -1.076873 2.620830 5.284946
vn 0.949032 0.282445 0.139866
vt 0.134766 1.000000
v -0.092304 -0.871357 5.656453
vn 0.949032 0.282445 0.139866
vt 0.065430 0.500000
v -1.159286 2.412299 6.265253
vn 0.949032 0.282445 0.139866
vt 0.065430 1.000000


usemtl material3
g material3

f 73/73/73 74/74/74 75/75/75
f 76/76/76 75/75/75 74/74/74
v -0.148378 -0.584500 4.676147
vn -0.915287 0.377740 0.139866
vt 0.134766 0.500000
v -1.385631 -3.807860 5.284946
vn -0.915287 0.377740 0.139866
vt 0.134766 1.000000
v 0.046901 -0.474304 5.656453
vn -0.915287 0.377740 0.139866
vt 0.065430 0.500000
v -1.190352 -3.697665 6.265253
vn -0.915287 0.377740 0.139866
vt 0.065430 1.000000


usemtl material3
g material3

f 77/77/77 78/78/78 79/79/79
f 80/80/80 79/79/79 78/78/78
v 0.779590 -0.799723 5.310928
vn -0.142023 -0.171890 0.974825
vt 0.173828 0.000000
v 0.779590 2.652934 5.919731
vn -0.142023 -0.171890 0.974825
vt 0.173828 0.500000
v -0.956295 -0.756474 5.065651
vn -0.142023 -0.171890 0.974825
vt 0.052734 0.000000
v -0.956295 2.696183 5.674454
vn -0.142023 -0.171890 0.974825
vt 0.052734 0.500000


usemtl material3
g material3

f 81/81/81 82/82/82 83/83/83
f 84/84/84 83/83/83 82/82/82
v -0.675771 0.018723 5.310928
vn 0.218546 0.044206 0.974825
vt 0.173828 0.000000
v -2.848585 -2.664506 5.919731
vn 0.218546 0.044206 0.974825
vt 0.173828 0.500000
v 0.646053 -1.107310 5.065651
vn 0.218546 0.044206 0.974825
vt 0.052734 0.000000
v -1.526761 -3.790539 5.674454
vn 0.218546 0.044206 0.974825
vt 0.052734 0.500000


usemtl material3
g material3

f 85/85/85 86/86/86 87/87/87
f 88/88/88 87/87/87 86/86/86
v -0.078830 -1.537259 5.272238
vn -0.418412 0.056260 0.906513
vt 0.173828 0.000000
v 3.061717 -0.869709 6.680364
vn -0.418412 0.056260 0.906513
vt 0.173828 0.500000
v -0.341897 0.181491 5.044149
vn -0.418412 0.056260 0.906513
vt 0.052734 0.000000
v 2.798651 0.849041 6.452275
vn -0.418412 0.056260 0.906513
vt 0.052734 0.500000


usemtl material3
g material3

f 89/89/89 90/90/90 91/91/91
f 92/92/92 91/91/91 90/90/90
v 0.455493 0.051679 5.272238
vn 0.289763 -0.307035 0.906513
vt 0.173828 0.000000
v -2.405280 1.509293 6.680364
vn 0.289763 -0.307035 0.906513
vt 0.173828 0.500000
v -0.421703 -1.449598 5.044149
vn 0.289763 -0.307035 0.906513
vt 0.052734 0.000000
v -3.282476 0.008016 6.452275
vn 0.289763 -0.307035 0.906513
vt 0.052734 0.500000


usemtl material3
g material3

f 93/93/93 94/94/94 95/95/95
f 96/96/96 95/95/95 94/94/94
v -0.927972 -0.918165 5.366730
vn 0.238770 -0.187106 0.952880
vt 0.173828 0.000000
v 0.444748 -4.001315 4.417357
vn 0.238770 -0.187106 0.952880
vt 0.173828 0.500000
v 0.630405 -0.150498 5.126974
vn 0.238770 -0.187106 0.952880
vt 0.052734 0.000000
v 2.003125 -3.233648 4.177601
vn 0.238770 -0.187106 0.952880
vt 0.052734 0.500000


usemtl material3
g material3

f 97/97/97 98/98/98 99/99/99
f 100/100/100 99/99/99 98/98/98
v 0.725797 -0.963827 5.366730
vn -0.067811 0.295671 0.952880
vt 0.173828 0.000000
v 1.599266 2.296116 4.417357
vn -0.067811 0.295671 0.952880
vt 0.173828 0.500000
v -0.968399 -0.579706 5.126974
vn -0.067811 0.295671 0.952880
vt 0.052734 0.000000
v -0.094930 2.680236 4.177601
vn -0.067811 0.295671 0.952880
vt 0.052734 0.500000


usemtl material3
g material3

f 101/101/101 102/102/102 103/103/103
f 104/104/104 103/103/103 102/102/102
v -0.458864 0.164588 5.206988
vn 0.646182 0.293933 0.704310
vt 0.173828 0.000000
v -2.476983 -1.301678 7.670470
vn 0.646182 0.293933 0.704310
vt 0.173828 0.500000
v 0.419889 -1.342634 5.029776
vn 0.646182 0.293933 0.704310
vt 0.052734 0.000000
v -1.598229 -2.808900 7.493258
vn 0.646182 0.293933 0.704310
vt 0.052734 0.500000


usemtl material3
g material3

f 105/105/105 106/106/106 107/107/107
f 108/108/108 107/107/107 106/106/106
v -0.320165 -1.510071 5.206988
vn -0.687156 0.178224 0.704310
vt 0.173828 0.000000
v 2.170960 -1.640600 7.670470
vn -0.687156 0.178224 0.704310
vt 0.173828 0.500000
v -0.054566 0.214279 5.029776
vn -0.687156 0.178224 0.704310
vt 0.052734 0.000000
v 2.436558 0.083750 7.493258
vn -0.687156 0.178224 0.704310
vt 0.052734 0.500000


usemtl material3
g material3

f 109/109/109 110/110/110 111/111/111
f 112/112/112 111/111/111 110/110/110
v 0.530549 -0.035442 5.384288
vn -0.456061 0.219523 0.862449
vt 0.173828 0.000000
v -1.739507 2.008497 3.663636
vn -0.456061 0.219523 0.862449
vt 0.173828 0.500000
v -0.540137 -1.407255 5.167286
vn -0.456061 0.219523 0.862449
vt 0.052734 0.000000
v -2.810193 0.636684 3.446634
vn -0.456061 0.219523 0.862449
vt 0.052734 0.500000


usemtl material3
g material3

f 113/113/113 114/114/114 115/115/115
f 116/116/116 115/115/115 114/114/114
v -0.963204 -0.731963 5.384288
vn 0.216278 -0.457609 0.862449
vt 0.173828 0.000000
v -0.485318 -3.748993 3.663636
vn 0.216278 -0.457609 0.862449
vt 0.173828 0.500000
v 0.732184 -0.339661 5.167286
vn 0.216278 -0.457609 0.862449
vt 0.052734 0.000000
v 1.210070 -3.356690 3.446634
vn 0.216278 -0.457609 0.862449
vt 0.052734 0.500000


usemtl material3
g material3

f 117/117/117 118/118/118 119/119/119
f 120/120/120 119/119/119 118/118/118
v 0.572273 -1.241081 5.191946
vn -0.498735 -0.579801 0.644278
vt 0.173828 0.000000
v 1.713214 0.735128 7.853587
vn -0.498735 -0.579801 0.644278
vt 0.173828 0.500000
v -0.836515 -0.209400 5.029838
vn -0.498735 -0.579801 0.644278
vt 0.052734 0.000000
v 0.304426 1.766809 7.691478
vn -0.498735 -0.579801 0.644278
vt 0.052734 0.500000


usemtl material3
g material3

f 121/121/121 122/122/122 123/123/123
f 124/124/124 123/123/123 122/122/122
v -0.236900 0.231256 5.191946
vn 0.752470 0.136729 0.644278
vt 0.173828 0.000000
v -2.367243 -0.586539 7.853587
vn 0.752470 0.136729 0.644278
vt 0.173828 0.500000
v 0.208684 -1.457089 5.029838
vn 0.752470 0.136729 0.644278
vt 0.052734 0.000000
v -1.921659 -2.274884 7.691478
vn 0.752470 0.136729 0.644278
vt 0.052734 0.500000


usemtl material3
g material3

f 125/125/125 126/126/126 127/127/127
f 128/128/128 127/127/127 126/126/126
v -0.426932 -1.457182 5.379268
vn 0.436391 0.007545 0.899725
vt 0.173828 0.000000
v 2.603780 -2.441884 3.917547
vn 0.436391 0.007545 0.899725
vt 0.173828 0.500000
v 0.010709 0.225836 5.152887
vn 0.436391 0.007545 0.899725
vt 0.052734 0.000000
v 3.041421 -0.758865 3.691166
vn 0.436391 0.007545 0.899725
vt 0.052734 0.500000


usemtl material3
g material3

f 129/129/129 130/130/130 131/131/131
f 132/132/132 131/131/131 130/130/130
v 0.675627 -0.229618 5.379268
vn -0.343889 0.268765 0.899725
vt 0.173828 0.000000
v -1.059998 2.442920 3.917547
vn -0.343889 0.268765 0.899725
vt 0.173828 0.500000
v -0.723637 -1.262159 5.152887
vn -0.343889 0.268765 0.899725
vt 0.052734 0.000000
v -2.459263 1.410379 3.691166
vn -0.343889 0.268765 0.899725
vt 0.052734 0.500000


usemtl material3
g material3

f 133/133/133 134/134/134 135/135/135
f 136/136/136 135/135/135 134/134/134
v -0.941993 -0.377872 5.235243
vn 0.201634 0.559780 0.803735
vt 0.173828 0.000000
v -1.239519 -3.208970 7.281666
vn 0.201634 0.559780 0.803735
vt 0.173828 0.500000
v 0.769191 -0.703883 5.033013
vn 0.201634 0.559780 0.803735
vt 0.052734 0.000000
v 0.471665 -3.534980 7.079437
vn 0.201634 0.559780 0.803735
vt 0.052734 0.500000


usemtl material3
g material3

f 137/137/137 138/138/138 139/139/139
f 140/140/140 139/139/139 138/138/138
v 0.396679 -1.392539 5.235243
vn -0.508978 -0.308141 0.803735
vt 0.173828 0.000000
v 2.409557 0.620408 7.281666
vn -0.508978 -0.308141 0.803735
vt 0.173828 0.500000
v -0.728003 -0.062304 5.033013
vn -0.508978 -0.308141 0.803735
vt 0.052734 0.000000
v 1.284875 1.950644 7.079436
vn -0.508978 -0.308141 0.803735
vt 0.052734 0.500000


usemtl material3
g material3

f 141/141/141 142/142/142 143/143/143
f 144/144/144 143/143/143 142/142/142
v -0.061410 0.232538 5.343920
vn -0.048349 -0.147888 0.987822
vt 0.173828 0.000000
v -3.540928 -0.133223 5.118855
vn -0.048349 -0.147888 0.987822
vt 0.173828 0.500000
v 0.135965 -1.492164 5.095373
vn -0.048349 -0.147888 0.987822
vt 0.052734 0.000000
v -3.343553 -1.857925 4.870308
vn -0.048349 -0.147888 0.987822
vt 0.052734 0.500000


usemtl material3
g material3

f 145/145/145 146/146/146 147/147/147
f 148/148/148 147/147/147 146/146/146
v -0.671808 -1.312754 5.343920
vn 0.130643 0.084504 0.987822
vt 0.173828 0.000000
v 2.262475 -3.218222 5.118855
vn 0.130643 0.084504 0.987822
vt 0.173828 0.500000
v 0.260187 0.151808 5.095373
vn 0.130643 0.084504 0.987822
vt 0.052734 0.000000
v 3.194470 -1.753660 4.870307
vn 0.130643 0.084504 0.987822
vt 0.052734 0.500000


usemtl material3
g material3

f 149/149/149 150/150/150 151/151/151
f 152/152/152 151/151/151 150/150/150
v 0.783709 -0.522646 5.310928
vn -0.081952 -0.207365 0.974825
vt 0.173828 0.000000
v -0.283273 2.761010 5.919728
vn -0.081952 -0.207365 0.974825
vt 0.173828 0.500000
v -0.880573 -1.017958 5.065651
vn -0.081952 -0.207365 0.974825
vt 0.052734 0.000000
v -1.947556 2.265697 5.674451
vn -0.081952 -0.207365 0.974825
vt 0.052734 0.500000


usemtl material3
g material3

f 153/153/153 154/154/154 155/155/155
f 156/156/156 155/155/155 154/154/154
v -0.853341 -0.194016 5.310928
vn 0.194187 0.109580 0.974825
vt 0.173828 0.000000
v -2.090594 -3.417376 5.919728
vn 0.194187 0.109580 0.974825
vt 0.173828 0.500000
v 0.751763 -0.856444 5.065651
vn 0.194187 0.109580 0.974825
vt 0.052734 0.000000
v -0.485490 -4.079804 5.674451
vn 0.194187 0.109580 0.974825
vt 0.052734 0.500000


usemtl material3
g material3

f 157/157/157 158/158/158 159/159/159
f 160/160/160 159/159/159 158/158/158


